<?xml version="1.0" encoding="utf-8"?>
<!-- Generator: Adobe Illustrator 19.1.0, SVG Export Plug-In . SVG Version: 6.00 Build 0)  -->
<svg version="1.1" id="Layer_1" xmlns="http://www.w3.org/2000/svg" xmlns:xlink="http://www.w3.org/1999/xlink" x="0px" y="0px"
	 viewBox="0 0 70.9 18.9" style="enable-background:new 0 0 70.9 18.9;" xml:space="preserve">
<g>
	<path d="M11.2,8.8c0-2.1,1.7-3.1,1.8-3.2C12,4.2,10.5,4,10,4C8.7,3.9,7.5,4.8,6.8,4.8C6.2,4.8,5.2,4,4.1,4c-1.4,0-2.7,0.8-3.4,2.1
		c-1.5,2.5-0.4,6.3,1,8.3c0.7,1,1.5,2.1,2.6,2.1c1.1,0,1.4-0.7,2.7-0.7c1.3,0,1.6,0.7,2.7,0.6c1.1,0,1.8-1,2.5-2
		c0.8-1.2,1.1-2.3,1.2-2.3C13.4,12.1,11.3,11.3,11.2,8.8"/>
	<path d="M9.2,2.6C9.7,1.9,10.1,1,10,0C9.2,0,8.2,0.6,7.6,1.3C7,1.9,6.6,2.9,6.7,3.8C7.6,3.9,8.6,3.3,9.2,2.6"/>
	<path d="M26.5,16.4H25l-0.8-2.5h-2.8l-0.8,2.5h-1.4L22,7.8h1.7L26.5,16.4z M24,12.8l-0.7-2.3c-0.1-0.2-0.2-0.8-0.4-1.6h0
		c-0.1,0.4-0.2,0.9-0.4,1.6l-0.7,2.3H24z"/>
	<path d="M33.6,13.2c0,1.1-0.3,1.9-0.9,2.5c-0.5,0.5-1.1,0.8-1.9,0.8c-0.8,0-1.4-0.3-1.8-0.9h0v3.3h-1.4v-6.7c0-0.7,0-1.3-0.1-2h1.2
		l0.1,1h0c0.5-0.7,1.2-1.1,2.1-1.1c0.7,0,1.3,0.3,1.8,0.9C33.4,11.5,33.6,12.3,33.6,13.2 M32.2,13.3c0-0.6-0.1-1.1-0.4-1.5
		c-0.3-0.4-0.7-0.6-1.2-0.6c-0.3,0-0.7,0.1-0.9,0.3c-0.3,0.2-0.5,0.5-0.5,0.9c0,0.2-0.1,0.3-0.1,0.4v1c0,0.5,0.1,0.8,0.4,1.1
		c0.3,0.3,0.6,0.5,1.1,0.5c0.5,0,0.9-0.2,1.2-0.6C32.1,14.4,32.2,13.9,32.2,13.3"/>
	<path d="M40.8,13.2c0,1.1-0.3,1.9-0.9,2.5c-0.5,0.5-1.1,0.8-1.9,0.8c-0.8,0-1.4-0.3-1.8-0.9h0v3.3h-1.4v-6.7c0-0.7,0-1.3-0.1-2H36
		l0.1,1h0c0.5-0.7,1.2-1.1,2.1-1.1c0.7,0,1.3,0.3,1.8,0.9C40.5,11.5,40.8,12.3,40.8,13.2 M39.4,13.3c0-0.6-0.1-1.1-0.4-1.5
		c-0.3-0.4-0.7-0.6-1.2-0.6c-0.3,0-0.7,0.1-0.9,0.3c-0.3,0.2-0.5,0.5-0.5,0.9c0,0.2-0.1,0.3-0.1,0.4v1c0,0.5,0.1,0.8,0.4,1.1
		c0.3,0.3,0.6,0.5,1.1,0.5c0.5,0,0.9-0.2,1.2-0.6C39.2,14.4,39.4,13.9,39.4,13.3"/>
	<path d="M48.8,14c0,0.7-0.3,1.3-0.8,1.8c-0.6,0.5-1.3,0.8-2.3,0.8c-0.9,0-1.7-0.2-2.2-0.5l0.3-1.2c0.6,0.4,1.3,0.6,2,0.6
		c0.5,0,0.9-0.1,1.2-0.4c0.3-0.2,0.4-0.5,0.4-0.9c0-0.4-0.1-0.6-0.4-0.9c-0.2-0.2-0.6-0.5-1.2-0.7c-1.5-0.6-2.3-1.4-2.3-2.5
		c0-0.7,0.3-1.3,0.8-1.7c0.5-0.5,1.2-0.7,2.1-0.7c0.8,0,1.4,0.1,2,0.4l-0.3,1.1c-0.5-0.3-1-0.4-1.7-0.4c-0.5,0-0.9,0.1-1.1,0.4
		c-0.2,0.2-0.3,0.5-0.3,0.8c0,0.3,0.1,0.6,0.4,0.8c0.2,0.2,0.6,0.4,1.3,0.7c0.7,0.3,1.3,0.6,1.6,1C48.6,12.9,48.8,13.4,48.8,14"/>
	<path d="M53.3,11.2h-1.5v3c0,0.8,0.3,1.2,0.8,1.2c0.2,0,0.5,0,0.6-0.1l0,1c-0.3,0.1-0.6,0.2-1.1,0.2c-0.5,0-1-0.2-1.3-0.5
		c-0.3-0.3-0.5-0.9-0.5-1.7v-3.1h-0.9v-1h0.9V9l1.4-0.4v1.5h1.5V11.2z"/>
	<path d="M60.2,13.2c0,1-0.3,1.7-0.8,2.4c-0.6,0.6-1.3,0.9-2.3,0.9c-0.9,0-1.6-0.3-2.2-0.9c-0.5-0.6-0.8-1.4-0.8-2.3
		c0-1,0.3-1.8,0.8-2.4c0.6-0.6,1.3-0.9,2.3-0.9c0.9,0,1.6,0.3,2.2,0.9C59.9,11.5,60.2,12.3,60.2,13.2 M58.8,13.3
		c0-0.6-0.1-1.1-0.4-1.5c-0.3-0.5-0.7-0.7-1.2-0.7c-0.6,0-1,0.2-1.3,0.7c-0.2,0.4-0.4,0.9-0.4,1.5c0,0.6,0.1,1.1,0.4,1.5
		c0.3,0.5,0.7,0.7,1.3,0.7c0.5,0,0.9-0.3,1.2-0.8C58.6,14.3,58.8,13.8,58.8,13.3"/>
	<path d="M64.7,11.4c-0.1,0-0.3,0-0.4,0c-0.5,0-0.9,0.2-1.1,0.6c-0.2,0.3-0.3,0.7-0.3,1.2v3.3h-1.4l0-4.3c0-0.7,0-1.4-0.1-2h1.2
		l0.1,1.2h0c0.1-0.4,0.4-0.7,0.7-1c0.3-0.2,0.6-0.3,1-0.3c0.1,0,0.2,0,0.3,0V11.4z"/>
	<path d="M70.9,13c0,0.2,0,0.5,0,0.6h-4.1c0,0.6,0.2,1.1,0.6,1.4c0.3,0.3,0.8,0.4,1.4,0.4c0.6,0,1.2-0.1,1.7-0.3l0.2,1
		c-0.6,0.3-1.3,0.4-2.1,0.4c-1,0-1.7-0.3-2.3-0.9c-0.5-0.6-0.8-1.3-0.8-2.3c0-0.9,0.3-1.7,0.8-2.3c0.5-0.7,1.3-1,2.2-1
		c0.9,0,1.6,0.3,2,1C70.7,11.6,70.9,12.2,70.9,13 M69.5,12.6c0-0.4-0.1-0.8-0.3-1.1C69,11.2,68.7,11,68.2,11c-0.5,0-0.8,0.2-1.1,0.6
		c-0.2,0.3-0.4,0.7-0.4,1.1H69.5z"/>
	<path d="M23.4,2.5c0,0.8-0.2,1.3-0.7,1.7c-0.4,0.4-1,0.5-1.8,0.5c-0.4,0-0.7,0-1-0.1V0.5c0.4-0.1,0.8-0.1,1.2-0.1
		c0.7,0,1.3,0.2,1.7,0.5C23.2,1.3,23.4,1.8,23.4,2.5 M22.7,2.5c0-0.5-0.1-0.9-0.4-1.1c-0.3-0.3-0.6-0.4-1.1-0.4c-0.2,0-0.4,0-0.5,0
		v3.2c0.1,0,0.2,0,0.5,0c0.5,0,0.9-0.1,1.2-0.4C22.6,3.5,22.7,3,22.7,2.5"/>
	<path d="M27.2,3.1c0,0.5-0.1,0.9-0.4,1.2c-0.3,0.3-0.7,0.5-1.1,0.5c-0.4,0-0.8-0.1-1.1-0.4c-0.3-0.3-0.4-0.7-0.4-1.1
		c0-0.5,0.1-0.9,0.4-1.2c0.3-0.3,0.6-0.5,1.1-0.5c0.4,0,0.8,0.1,1.1,0.4C27.1,2.3,27.2,2.7,27.2,3.1 M26.5,3.1
		c0-0.3-0.1-0.5-0.2-0.7c-0.1-0.2-0.3-0.4-0.6-0.4c-0.3,0-0.5,0.1-0.6,0.4c-0.1,0.2-0.2,0.4-0.2,0.7c0,0.3,0.1,0.5,0.2,0.7
		c0.1,0.2,0.4,0.4,0.6,0.4c0.3,0,0.5-0.1,0.6-0.4C26.5,3.7,26.5,3.4,26.5,3.1"/>
	<path d="M32.3,1.6l-1,3.1h-0.6l-0.4-1.3c-0.1-0.3-0.2-0.7-0.2-1h0C30,2.7,30,3,29.9,3.4l-0.4,1.3h-0.6l-0.9-3.1h0.7l0.3,1.5
		c0.1,0.3,0.2,0.7,0.2,1h0c0.1-0.3,0.1-0.6,0.3-1l0.4-1.5h0.6L30.8,3c0.1,0.3,0.2,0.7,0.2,1h0c0-0.3,0.1-0.7,0.2-1l0.4-1.4H32.3z"/>
	<path d="M35.8,4.7h-0.7V2.9c0-0.5-0.2-0.8-0.6-0.8c-0.2,0-0.4,0.1-0.5,0.2c-0.1,0.1-0.2,0.3-0.2,0.5v1.8h-0.7V2.5
		c0-0.3,0-0.6,0-0.9h0.6l0,0.5h0C33.9,2,34,1.8,34.2,1.7c0.2-0.1,0.4-0.2,0.6-0.2c0.3,0,0.5,0.1,0.7,0.3c0.2,0.2,0.4,0.6,0.4,1V4.7z
		"/>
	<rect x="37" y="0.2" width="0.7" height="4.5"/>
	<path d="M41.7,3.1c0,0.5-0.1,0.9-0.4,1.2c-0.3,0.3-0.7,0.5-1.1,0.5c-0.4,0-0.8-0.1-1.1-0.4c-0.3-0.3-0.4-0.7-0.4-1.1
		c0-0.5,0.1-0.9,0.4-1.2c0.3-0.3,0.6-0.5,1.1-0.5c0.4,0,0.8,0.1,1.1,0.4C41.6,2.3,41.7,2.7,41.7,3.1 M41,3.1c0-0.3-0.1-0.5-0.2-0.7
		c-0.1-0.2-0.3-0.4-0.6-0.4c-0.3,0-0.5,0.1-0.6,0.4c-0.1,0.2-0.2,0.4-0.2,0.7c0,0.3,0.1,0.5,0.2,0.7c0.1,0.2,0.4,0.4,0.6,0.4
		c0.3,0,0.5-0.1,0.6-0.4C41,3.7,41,3.4,41,3.1"/>
	<path d="M45,4.7h-0.6l-0.1-0.4h0c-0.2,0.3-0.5,0.4-0.9,0.4c-0.3,0-0.5-0.1-0.7-0.3c-0.2-0.2-0.2-0.4-0.2-0.6c0-0.4,0.2-0.7,0.5-0.9
		c0.3-0.2,0.8-0.3,1.3-0.3V2.6c0-0.4-0.2-0.6-0.6-0.6c-0.3,0-0.6,0.1-0.8,0.2l-0.1-0.4c0.3-0.2,0.6-0.3,1-0.3C44.6,1.6,45,2,45,2.8
		v1.1C45,4.3,45,4.5,45,4.7 M44.3,3.6V3.2c-0.8,0-1.1,0.2-1.1,0.6c0,0.2,0,0.3,0.1,0.4c0.1,0.1,0.2,0.1,0.3,0.1c0.2,0,0.3,0,0.4-0.1
		c0.1-0.1,0.2-0.2,0.2-0.4C44.3,3.7,44.3,3.7,44.3,3.6"/>
	<path d="M48.9,4.7h-0.6l0-0.5h0c-0.2,0.4-0.5,0.6-1,0.6c-0.4,0-0.7-0.1-0.9-0.4S46,3.6,46,3.2c0-0.5,0.1-0.9,0.4-1.2
		c0.3-0.3,0.6-0.4,0.9-0.4c0.4,0,0.7,0.1,0.9,0.4h0V0.2h0.7v3.6C48.8,4.2,48.8,4.4,48.9,4.7 M48.2,3.4V2.9c0-0.1,0-0.2,0-0.2
		c0-0.2-0.1-0.3-0.2-0.4c-0.1-0.1-0.3-0.2-0.5-0.2c-0.3,0-0.5,0.1-0.6,0.3c-0.1,0.2-0.2,0.5-0.2,0.8c0,0.3,0.1,0.5,0.2,0.7
		c0.1,0.2,0.3,0.3,0.6,0.3c0.2,0,0.4-0.1,0.5-0.3C48.1,3.8,48.2,3.6,48.2,3.4"/>
	<path d="M54.7,3.1c0,0.5-0.1,0.9-0.4,1.2c-0.3,0.3-0.7,0.5-1.1,0.5c-0.4,0-0.8-0.1-1.1-0.4c-0.3-0.3-0.4-0.7-0.4-1.1
		c0-0.5,0.1-0.9,0.4-1.2c0.3-0.3,0.6-0.5,1.1-0.5c0.4,0,0.8,0.1,1.1,0.4C54.5,2.3,54.7,2.7,54.7,3.1 M54,3.1c0-0.3-0.1-0.5-0.2-0.7
		c-0.1-0.2-0.3-0.4-0.6-0.4c-0.3,0-0.5,0.1-0.6,0.4c-0.1,0.2-0.2,0.4-0.2,0.7c0,0.3,0.1,0.5,0.2,0.7c0.1,0.2,0.4,0.4,0.6,0.4
		c0.3,0,0.5-0.1,0.6-0.4C53.9,3.7,54,3.4,54,3.1"/>
	<path d="M58.3,4.7h-0.7V2.9c0-0.5-0.2-0.8-0.6-0.8c-0.2,0-0.4,0.1-0.5,0.2c-0.1,0.1-0.2,0.3-0.2,0.5v1.8h-0.7V2.5
		c0-0.3,0-0.6,0-0.9h0.6l0,0.5h0c0.1-0.1,0.2-0.3,0.4-0.4c0.2-0.1,0.4-0.2,0.6-0.2c0.3,0,0.5,0.1,0.7,0.3c0.2,0.2,0.4,0.6,0.4,1V4.7
		z"/>
	<path d="M62.9,2.1h-0.7v1.5c0,0.4,0.1,0.6,0.4,0.6c0.1,0,0.2,0,0.3,0l0,0.5c-0.1,0.1-0.3,0.1-0.5,0.1c-0.3,0-0.5-0.1-0.6-0.2
		c-0.2-0.2-0.2-0.4-0.2-0.8V2.1H61V1.6h0.4V1.1l0.7-0.2v0.8h0.7V2.1z"/>
	<path d="M66.5,4.7h-0.7V2.9c0-0.5-0.2-0.8-0.6-0.8c-0.3,0-0.5,0.2-0.6,0.5c0,0.1,0,0.1,0,0.2v1.8h-0.7V0.2h0.7v1.8h0
		c0.2-0.3,0.5-0.5,0.9-0.5c0.3,0,0.5,0.1,0.7,0.3c0.2,0.2,0.3,0.6,0.3,1V4.7z"/>
	<path d="M70.2,3c0,0.1,0,0.2,0,0.3h-2c0,0.3,0.1,0.5,0.3,0.7c0.2,0.1,0.4,0.2,0.7,0.2c0.3,0,0.6,0,0.8-0.1L70,4.5
		c-0.3,0.1-0.6,0.2-1,0.2c-0.5,0-0.8-0.1-1.1-0.4c-0.3-0.3-0.4-0.7-0.4-1.1c0-0.5,0.1-0.8,0.4-1.2c0.3-0.3,0.6-0.5,1.1-0.5
		c0.4,0,0.8,0.2,1,0.5C70.1,2.3,70.2,2.6,70.2,3 M69.6,2.8c0-0.2,0-0.4-0.1-0.5C69.3,2.1,69.1,2,68.9,2c-0.2,0-0.4,0.1-0.5,0.3
		c-0.1,0.1-0.2,0.3-0.2,0.5H69.6z"/>
</g>
</svg>
