<?xml version="1.0" encoding="utf-8"?>
<!-- Generator: Adobe Illustrator 19.1.0, SVG Export Plug-In . SVG Version: 6.00 Build 0)  -->
<svg version="1.1" id="Layer_1" xmlns="http://www.w3.org/2000/svg" xmlns:xlink="http://www.w3.org/1999/xlink" x="0px" y="0px"
	 viewBox="-256 158.6 285.4 285.4" style="enable-background:new -256 158.6 285.4 285.4;" xml:space="preserve">
<style type="text/css">
	.st0{fill:#3399CC;}
</style>
<g>
	<path class="st0" d="M-114.5,441c-18.9,0-37.2-3.7-54.4-11c-16.6-7-31.6-17.1-44.4-29.9s-22.9-27.8-29.9-44.4
		c-7.3-17.2-11-35.5-11-54.4c0-18.9,3.7-37.2,11-54.4c7-16.6,17.1-31.6,29.9-44.4s27.8-22.9,44.4-29.9c17.2-7.3,35.5-11,54.4-11
		c18.9,0,37.2,3.7,54.4,11c16.6,7,31.6,17.1,44.4,29.9s22.9,27.8,29.9,44.4c7.3,17.2,11,35.5,11,54.4c0,18.9-3.7,37.2-11,54.4
		c-7,16.6-17.1,31.6-29.9,44.4S-43.5,423-60.1,430C-77.3,437.3-95.6,441-114.5,441z M-114.5,161.8c-18.8,0-37.1,3.7-54.3,11
		c-16.6,7-31.5,17.1-44.3,29.9c-12.8,12.8-22.9,27.7-29.9,44.3c-7.3,17.2-11,35.5-11,54.3s3.7,37.1,11,54.3
		c7,16.6,17.1,31.5,29.9,44.3c12.8,12.8,27.7,22.9,44.3,29.9c17.2,7.3,35.5,11,54.3,11s37.1-3.7,54.3-11c16.6-7,31.5-17.1,44.3-29.9
		C-3.1,387.1,7,372.2,14,355.6c7.3-17.2,11-35.5,11-54.3s-3.7-37.1-11-54.3c-7-16.6-17.1-31.5-29.9-44.3
		c-12.8-12.8-27.7-22.9-44.3-29.9C-77.4,165.5-95.7,161.8-114.5,161.8z"/>
</g>
<g>
	<g>
		<path d="M-249.9,333.4c-1.6,0-3-1.3-3-2.9c0-1.7,1.3-3,2.9-3.1c10.1-0.2,17.4-3.7,20.1-9.6c1.7-3.8,1.2-8.1-1.3-11.1
			c-2.5-3-6.4-3.9-11-2.7c-1.6,0.4-3.2-0.5-3.7-2.1c-0.4-1.6,0.5-3.2,2-3.7c37.5-11.1,51.8-40.8,57-57.5c2.2-7.1,0.5-11.8-5-13.9
			c-3.7-1.4-9.7,1.7-11.6,2.9c-1.2,0.8-2.8,0.6-3.8-0.4c-1-1-1.1-2.6-0.3-3.8c10.2-14.6,22.7-23.3,37-25.7
			c18.6-3.1,34.8,5.2,40.9,8.9c11.9-16,33.1-31.2,68.4-19.6c1.2,0.4,2.1,1.6,2.1,2.9s-0.8,2.4-2.1,2.8c-12.5,4-19.9,11.3-22,21.6
			c-2.2,10.8,2.5,21.8,4.4,23.5c1.3,1.1,1.4,3,0.3,4.2c-1.1,1.3-3,1.4-4.2,0.3c-3.6-3.1-9-16.1-6.4-29.2c1.5-7.2,5.8-16.4,17.8-22.7
			c-23.1-5.1-41.6,2.3-55,21.9c-0.5,0.7-1.2,1.1-2,1.3c-0.8,0.1-1.6-0.1-2.3-0.5c-0.2-0.1-18.3-13-39-9.5
			c-9.7,1.6-18.5,6.6-26.2,14.8c2.1-0.2,4.2-0.1,6.2,0.7c12.5,4.8,9.7,17.5,8.6,21.3c-5,16-17.8,43.1-49.3,57.2
			c1.4,0.8,2.6,1.9,3.7,3.2c4,4.7,4.8,11.5,2.2,17.4C-228.1,328.3-237.3,333.1-249.9,333.4C-249.9,333.4-249.9,333.4-249.9,333.4z"
			/>
	</g>
	<g>
		<path d="M-96.1,443c-0.7,0-1.5-0.3-2.1-0.8c-21.6-20.2-32.1-43.8-31.5-69.9c0.6-23.3,10.1-40.1,12-43.2c0.7-1.2,2.2-1.7,3.5-1.3
			c0.2,0,0.5,0.1,0.7,0.2c8.4,3.7,16.6,2.4,21.9,0.6c3.9-1.4,8.7-0.3,14.5,1.6c20.9,7.2,29.3,12.1,36.1,17.6c2.5,2.1,6,3,7.6,3h10
			c3.8,0,7.2-2.4,8.5-6l4-11.2c0.9-2.5,0.6-5.2-0.8-7.6c-0.3-0.5-0.6-1.1-1-1.7c-0.5-0.9-1-1.7-1.5-2.5
			c-21.3-29.5-68-76.8-68.5-77.2c-0.1-0.1-0.1-0.1-0.2-0.2c-0.4-0.5-11.2-13.2-34.6-13.2c-40.7,0-72.1,56.4-77.9,67.7
			c-21,40.6-31.2,55.3-43.5,63c-1.4,0.9-3.3,0.4-4.1-1c-0.9-1.4-0.4-3.3,1-4.1c11.1-6.9,21.1-21.6,41.3-60.6
			c6.2-11.8,39.1-70.9,83.3-70.9c25.4,0,37.8,13.7,39.1,15.3c2.3,2.3,47.9,48.6,69,77.9c0.8,1.1,1.3,2.1,1.9,3.1
			c0.3,0.5,0.6,1,0.9,1.5c2.3,4,2.7,8.6,1.2,12.7l-4,11.2c-2.1,6-7.8,10-14.1,10h-10c-2.9,0-7.8-1.4-11.4-4.4
			c-6.2-5.1-14.1-9.7-34.2-16.6c-5.5-1.8-8.6-2.3-10.6-1.6c-5.9,2-14.7,3.5-24.1,0.1c-5.7,10.9-27.1,59.6,19.7,103.5
			c1.2,1.1,1.3,3,0.1,4.2C-94.5,442.7-95.3,443-96.1,443z"/>
	</g>
	<g>
		<path d="M-113.3,444C-192,444-256,380-256,301.3c0-78.7,64-142.7,142.7-142.7c34.4,0,67.6,12.4,93.5,34.8c1.2,1.1,1.4,3,0.3,4.2
			c-1.1,1.3-3,1.4-4.2,0.3c-24.7-21.5-56.5-33.4-89.5-33.4c-75.4,0-136.7,61.3-136.7,136.7S-188.7,438-113.3,438
			S23.4,376.7,23.4,301.3c0-36.2-14-70.4-39.5-96.2l-2.2-2.1c-1.2-1.1-1.2-3-0.1-4.2c1.1-1.2,3-1.2,4.2-0.1l2.3,2.2
			c26.7,27,41.3,62.6,41.3,100.5C29.4,380-34.6,444-113.3,444z"/>
	</g>
	<g>
		<path d="M-80.3,275.6c-1.7,0-3-1.3-3-3c0-5.4-4.2-9.6-9.6-9.6c-5.4,0-9.6,4.2-9.6,9.6c0,1.7-1.3,3-3,3s-3-1.3-3-3
			c0-8.6,7-15.6,15.6-15.6c8.6,0,15.6,7,15.6,15.6C-77.3,274.3-78.6,275.6-80.3,275.6z"/>
	</g>
	<g>
		<path d="M-114.6,333.7c-0.3,0-0.5,0-0.8-0.1c-0.3-0.1-8.3-2.4-16.4-13.5c-1-1.3-0.7-3.2,0.7-4.2c1.3-1,3.2-0.7,4.2,0.7
			c6.8,9.3,13.1,11.3,13.2,11.3c1.6,0.4,2.5,2.1,2.1,3.7C-112.1,332.8-113.3,333.7-114.6,333.7z"/>
	</g>
	<g>
		<path d="M-63,263c-0.8,0-1.6-0.3-2.1-0.9l-17.7-17.8c-0.6-0.6-0.9-1.4-0.9-2.3s0.5-1.6,1.1-2.2L1,174.4c1.2-0.9,2.9-0.8,4,0.2
			c1.1,1.1,1.2,2.8,0.2,4l-65.8,83.2c-0.5,0.7-1.3,1.1-2.2,1.1C-62.9,263-62.9,263-63,263z M-76.2,242.5l12.9,13l48.1-60.8
			L-76.2,242.5z"/>
	</g>
</g>
<g>
	<path d="M-12.9,347.6c-9.9,0-19.1-4-26-11.1c-1.1-1.2-1.1-3.1,0.1-4.2c1.2-1.1,3.1-1.1,4.2,0.1c5.7,6,13.4,9.3,21.6,9.3
		c1.7,0,3,1.3,3,3S-11.2,347.6-12.9,347.6z"/>
</g>
</svg>
